<svg xmlns="http://www.w3.org/2000/svg" viewBox="0 0 100 100" width="100%" height="100%">
  <!-- 4-Pointed Faceted Imperial Star (Compass Rose) -->
  <!-- North Point -->
  <polygon points="50,8 50,50 58,42" fill="#aa8439" />
  <polygon points="50,8 42,42 50,50" fill="#d4af37" />
  
  <!-- East Point -->
  <polygon points="92,50 50,50 58,42" fill="#d4af37" />
  <polygon points="92,50 58,58 50,50" fill="#aa8439" />
  
  <!-- South Point -->
  <polygon points="50,92 50,50 58,58" fill="#d4af37" />
  <polygon points="50,92 42,58 50,50" fill="#aa8439" />
  
  <!-- West Point -->
  <polygon points="8,50 50,50 42,58" fill="#d4af37" />
  <polygon points="8,50 42,42 50,50" fill="#aa8439" />
  
  <!-- Central Resilient Medallion -->
  <circle cx="50" cy="50" r="18" fill="#2B7574" stroke="#070b0d" stroke-width="2.5" />
  
  <!-- Stylized Human Identity Icon in the Center (Person Silhouette) -->
  <!-- Head -->
  <circle cx="50" cy="41" r="5" fill="#d4af37" />
  <!-- Shoulders -->
  <path d="M37,59 C37,51 42,49 50,49 C58,49 63,51 63,59 Z" fill="#d4af37" />
</svg>
